<svg version="1.0" xmlns="http://www.w3.org/2000/svg"
     width="16" height="16" viewBox="0 0 200.000000 200.000000"
     preserveAspectRatio="xMidYMid meet">

    <g transform="translate(0.000000,200.000000) scale(0.100000,-0.100000)"
       fill="#000000" stroke="none">
        <path d="M913 1910 c-335 -35 -627 -248 -754 -549 -159 -380 -50 -817 269
-1072 297 -238 710 -268 1036 -76 171 100 307 257 382 440 48 119 65 212 65
352 0 312 -147 586 -405 756 -179 118 -387 170 -593 149z m-128 -429 c88 -38
223 -92 300 -121 156 -58 282 -119 313 -153 42 -46 39 -61 -57 -232 l-90 -160
70 -5 70 -5 -130 -174 c-72 -96 -131 -171 -131 -168 0 4 11 55 25 113 14 58
25 108 25 110 0 2 -22 4 -50 4 -58 0 -57 -1 -32 92 12 41 15 65 8 63 -6 -2
-35 -11 -64 -20 -74 -24 -129 -8 -195 56 -79 77 -66 88 118 105 l90 8 -126 6
c-108 5 -131 9 -163 30 -60 36 -123 154 -102 188 3 5 68 -6 147 -24 220 -52
255 -52 104 -1 -243 82 -238 80 -270 144 -42 86 -58 213 -28 213 4 0 80 -31
168 -69z"/>
    </g>
</svg>
