<svg version="1.0" xmlns="http://www.w3.org/2000/svg"
     width="16" height="16" viewBox="0 0 200.000000 200.000000"
     preserveAspectRatio="xMidYMid meet">

    <g transform="translate(0.000000,200.000000) scale(0.100000,-0.100000)"
       fill="#000000" stroke="none">
        <path d="M444 1780 c-32 -13 -49 -63 -34 -99 6 -17 90 -100 190 -190 191 -171
301 -289 381 -410 l51 -76 -33 -28 c-55 -45 -148 -86 -227 -98 -72 -11 -74
-10 -115 18 -65 44 -318 300 -383 388 -37 50 -68 81 -84 85 -34 9 -78 -7 -91
-33 -14 -26 -12 -832 2 -858 10 -20 150 -115 224 -152 384 -192 831 -138 1132
136 107 99 181 228 263 462 49 139 81 195 144 248 40 33 46 43 46 76 0 47 -25
71 -103 100 -104 38 -212 44 -317 16 -24 -6 -28 -1 -59 69 -48 110 -125 230
-191 297 l-58 59 -358 -1 c-198 0 -368 -4 -380 -9z m725 -217 c48 -65 87 -134
129 -234 l20 -47 -87 -74 -87 -75 -31 47 c-58 87 -182 227 -301 339 l-117 111
212 0 211 0 51 -67z m501 -347 c0 -2 -11 -24 -25 -49 -14 -25 -52 -118 -85
-207 -83 -226 -135 -312 -199 -330 -53 -15 -168 -12 -236 5 -33 9 -99 34 -148
57 l-87 41 86 43 c101 50 157 95 282 225 148 156 251 218 360 219 28 0 52 -2
52 -4z m-1116 -445 c182 -144 339 -232 508 -286 l102 -32 -55 -20 c-264 -99
-547 -68 -792 87 l-67 42 0 246 0 245 113 -109 c61 -61 148 -138 191 -173z"/>
    </g>
</svg>
